<svg width="3129" height="1303" viewBox="0 0 3129 1303" fill="none" xmlns="http://www.w3.org/2000/svg">
<path d="M92 644.5L0 473.5H767.5L661 773L604.5 809L506.5 1171L438 1109.5L365 1303L220 929L172 949L92 644.5Z" fill="#196BB4"/>
<path d="M151.5 202L0 441.5H30.5L166 226L293 178L386 48.5L413.5 251L278 397L452.5 310.5L599.5 441.5H762L676 283L567.5 251L386 0L278 154L151.5 202Z" fill="#196BB4"/>
<path d="M3111.5 474.5C3120.89 474.5 3128.5 466.889 3128.5 457.5C3128.5 448.111 3120.89 440.5 3111.5 440.5L3111.5 457.5L3111.5 474.5ZM0 457.5L-2.62814e-10 474.5L3111.5 474.5L3111.5 457.5L3111.5 440.5L2.15261e-10 440.5L0 457.5Z" fill="#196BB4"/>
</svg>
